<svg width="20" height="19" xmlns="http://www.w3.org/2000/svg" fill="none">

 <g>
  <title>Layer 1</title>
  <path id="svg_1" fill="#43464E" d="m19.5613,3.87359c-0.3791,-0.46328 -0.9689,-0.74486 -1.5792,-0.74486l-12.82321,0l-0.39975,-1.48972c-0.23196,-0.86599 -1.03145,-1.47006 -1.95845,-1.47006l-2.14759,0c-0.3578,0 -0.6531,0.28157 -0.6531,0.62452c0,0.34215 0.29446,0.62453 0.6531,0.62453l2.14759,0c0.31585,0 0.58976,0.20136 0.67365,0.50339l2.56872,9.78631c0.23196,0.866 1.03145,1.4701 1.95846,1.4701l8.40128,0c0.9261,0 1.7479,-0.6041 1.9584,-1.4701l1.5793,-6.20195c0.1472,-0.56475 0.0214,-1.16882 -0.3792,-1.6321l0,-0.00006zm-0.9047,1.34893l-1.5793,6.20198c-0.0839,0.302 -0.3578,0.5034 -0.6737,0.5034l-8.40206,0c-0.31585,0 -0.58976,-0.2014 -0.67365,-0.5034l-1.83178,-7.02694l12.48689,0c0.2106,0 0.4212,0.10068 0.5478,0.26192c0.1259,0.16046 0.1884,0.36182 0.1259,0.56318l-0.0001,-0.00014z"/>
  <path id="svg_2" fill="#43464E" d="m8.44437,13.9814c-1.20007,0 -2.18949,0.9462 -2.18949,2.0937c0,1.1475 0.98951,2.0937 2.18949,2.0937c1.20008,0.0008 2.18953,-0.9454 2.18953,-2.0931c0,-1.1477 -0.98954,-2.0945 -2.18953,-2.0945l0,0.0002zm0,2.9197c-0.48447,0 -0.86366,-0.3626 -0.86366,-0.8259c0,-0.4633 0.37919,-0.8259 0.86366,-0.8259c0.48448,0 0.86367,0.3626 0.86367,0.8259c-0.00082,0.4436 -0.40056,0.8259 -0.86367,0.8259z"/>
  <path id="svg_3" fill="#43464E" d="m15.6875,13.9814c-1.2,0 -2.1895,0.9463 -2.1895,2.0938c0,1.1474 0.9896,2.0937 2.1895,2.0937c1.2,0 2.1895,-0.9463 2.1895,-2.0937c-0.0205,-1.1468 -0.9895,-2.0938 -2.1895,-2.0938zm0,2.9197c-0.4844,0 -0.8636,-0.3626 -0.8636,-0.8259c0,-0.4632 0.3792,-0.8259 0.8636,-0.8259c0.4845,0 0.8637,0.3627 0.8637,0.8259c0,0.4436 -0.4006,0.8259 -0.8637,0.8259z"/>
  <path stroke-width="0.5" id="svg_8" d="m10.13566,6.90747l0.96695,-0.96695l1.02717,1.02717l1.02717,-1.02717l0.96696,0.96695l-1.02718,1.02717l1.02718,1.02717l-0.96696,0.96696l-1.02717,-1.02718l-1.02717,1.02718l-0.96695,-0.96696l1.02717,-1.02717l-1.02717,-1.02717z" fill="#43464E"/>
 </g>
</svg>